<svg id="Layer_1" data-name="Layer 1" xmlns="http://www.w3.org/2000/svg" viewBox="0 0 487.8 138.07"><defs><style>.cls-1{stroke:#000;stroke-linecap:square;stroke-miterlimit:2;stroke-width:0.25px;}</style></defs><title>20171017_VOG_Logo_Black</title><path class="cls-1" d="M518.56,161.35c-2.47-19-7-28.36-20.47-30.11l-9.59,0c0,3.55,0,48.71,0,64.45,7.15,0,9,0,16.16,0,18.71-1.18,40.71-15.57,45.11-46.06,0,15.36,0,31.11,0,47.57l-96.14,0,0-1.57h14.27c0-43.36,0-83.4,0-126l-10.15,0c0,34.38,0,62.54,0,98.26-0.76,10.45-5.11,16.59-9.6,22.26a29.61,29.61,0,0,1-16.25,9.46c-20.15,4.49-43,.24-53.16-14.81-2.66-4.76-4.3-7.34-4.54-23.37V69.76l-11.9,0,0-1.51c15.28,0,28.95,0,44.55,0v1.5l-12.06,0,0,109.12c-0.31,5.75,3.71,13,14,18.92,5.75,2.53,15.05,1.9,20.63.87,4.25-.52,6.91-1.74,10.58-3.53,7.31-3.59,16.46-17.37,16.27-27,0-37.22,0-98.38,0-98.38l-15.32,0c0-1.66,0-.07,0-1.51H544.31v43c-1.19-5.26-2.07-13.44-6.53-21.5-7.56-14.73-16.94-20.47-33.46-20h-15.8l0,60c1.74,0,7.55,0,9.67,0,13.77-1.3,18.19-8.59,20.38-26Z" transform="translate(-62.1 -63.52)"/><path class="cls-1" d="M371.13,145.48l-7.7,0c0,15.11,0,33.91,0,50.86-3.07-5.34-6.62-8.31-14.37-6.07-10.9,5.21-24,10.58-31.35,10.4-7.89.2-15.82-2.59-23.07-6.11-25.65-17.28-35-49.52-28.39-80.66,4.81-19.83,19-41.9,39.88-48.55,20.89-7.62,35,14.28,49.2-1.14,0,11,0,42,0,46.45v1.55C350.57,94.89,342.61,72.49,323,65.81c-11.92-2.57-22.57,2.79-27.59,11.9-10.71,23.57-11.38,85.14,2,110.6,1.69,3.85,9.06,11.29,20.32,10.75s25.16-7.62,25.16-17.82c0-12.38,0-22.51,0-35.77-2.06,0-6.67,0-7.73,0,0-.72,0-0.7,0-1.53l36,0Z" transform="translate(-62.1 -63.52)"/><path class="cls-1" d="M233.12,191.94c-11.16,7.62-24.91,11.62-39.36,8.41-18.06-3.8-34.53-20.79-40.54-38-7.88-25.44-4.88-57.34,12.6-77.45,13.74-13.65,30.45-22.35,50.2-18.08,17.89,3.89,36.56,22.15,41.41,39.79C267.56,137.34,259.43,172.12,233.12,191.94ZM224,74.06c-6.11-6.63-19.1-8.85-29.38-4.85-18.45,9.61-19.83,34.35-21.45,55C172,138.3,171.61,175,186.7,194c6.15,6.12,18.13,7.07,25.81,4.79,22.86-8.44,23.76-34.4,25.37-55.88v-0.46C239.11,118.56,236.5,89.26,224,74.06Z" transform="translate(-62.1 -63.52)"/><path class="cls-1" d="M173.15,69.72c-0.35.1-11.14,0-12.6,0-13.3,42.13-27.4,86.6-40.66,128.42-2.78-6.7-5.19-12.92-7.92-20.3L71.64,69.73c-4.55,0-5.8,0-9.38,0l0-1.49,41.37,0,0,1.49H93.76l34.47,93.18,0.6,1.79,30.38-95c-4.62,0-9.58,0-13.75,0V68.24l27.67,0Z" transform="translate(-62.1 -63.52)"/></svg>